<svg xmlns="http://www.w3.org/2000/svg" width="400" height="400" id="bug"><path fill="#0B4870" d="m231.025 248.015-80.541 80.54a6.392 6.392 0 1 1-9.04-9.04l80.541-80.539a6.392 6.392 0 1 1 9.04 9.039zm-3.04-34.031a6.378 6.378 0 0 1-5.568 1.788 6.394 6.394 0 0 1-5.265-7.349l18.587-112.375a6.398 6.398 0 0 1 7.35-5.264 6.395 6.395 0 0 1 5.264 7.35L229.768 210.51a6.357 6.357 0 0 1-1.783 3.474zm-13.901 13.902a6.368 6.368 0 0 1-3.473 1.781L98.236 248.252a6.393 6.393 0 0 1-2.086-12.614l112.374-18.586a6.395 6.395 0 0 1 5.56 10.834zm157.914-.834a6.362 6.362 0 0 1-3.474 1.781l-112.375 18.589a6.398 6.398 0 0 1-7.352-5.269 6.4 6.4 0 0 1 5.263-7.35l112.376-18.585a6.396 6.396 0 0 1 5.562 10.834zm-43.344-76.666-80.54 80.54a6.392 6.392 0 1 1-9.04-9.04l80.54-80.54a6.393 6.393 0 1 1 9.04 9.04zM227.151 371.897a6.394 6.394 0 0 1-10.831-5.562l18.584-112.375a6.402 6.402 0 0 1 7.35-5.264 6.397 6.397 0 0 1 5.266 7.353l-18.586 112.373a6.353 6.353 0 0 1-1.783 3.475z"></path><path fill="#0E538C" d="M170.742 153.505a6.377 6.377 0 0 1-3.507 4.679 6.391 6.391 0 0 1-8.545-2.946L108.816 52.835a6.4 6.4 0 0 1 2.948-8.547 6.394 6.394 0 0 1 8.546 2.948l49.874 102.401a6.37 6.37 0 0 1 .558 3.868zm-12.699 4.332a6.384 6.384 0 0 1 .83 5.79 6.392 6.392 0 0 1-8.126 3.958L43.071 130.442a6.4 6.4 0 0 1-3.958-8.129 6.394 6.394 0 0 1 8.127-3.958l107.675 37.143a6.366 6.366 0 0 1 3.128 2.339z"></path><path fill="#FFBE55" d="M294.891 157.386c-41.188-41.188-105.338-43.819-143.281-5.876-37.944 37.943-35.311 102.093 5.876 143.28 41.19 41.189 105.336 43.819 143.281 5.876 37.942-37.942 35.313-102.091-5.876-143.28z"></path><path fill="#0B4870" d="M207.102 238.639c9.984 9.985 9.983 26.175 0 36.159-9.987 9.986-26.174 9.984-36.159 0-9.986-9.986-9.986-26.171 0-36.158 9.984-9.985 26.172-9.988 36.159-.001zm67.797-67.797c9.984 9.983 9.984 26.174 0 36.158-9.986 9.985-26.174 9.984-36.158 0-9.987-9.985-9.985-26.173 0-36.158 9.984-9.985 26.172-9.987 36.158 0zm10.848 78.645c9.984 9.984 9.985 26.174 0 36.158-9.987 9.986-26.176 9.984-36.16 0-9.986-9.985-9.986-26.172 0-36.158 9.985-9.985 26.174-9.986 36.16 0zm-86.074-140.312c-21.318-21.317-58.834-18.36-83.796 6.601-24.963 24.964-27.919 62.479-6.601 83.797 21.316 21.316 58.831 18.36 83.794-6.604 24.962-24.961 27.92-62.478 6.603-83.794z"></path><circle cx="108.72" cy="38.864" r="12.637" fill="#0B4870"></circle><circle cx="38.763" cy="120.097" r="12.637" fill="#0B4870"></circle></svg>